<svg height="166" viewBox="0 0 250 166" width="250" xmlns="http://www.w3.org/2000/svg"><g fill="none" fill-rule="evenodd"><path d="m0 0h250v166h-250z" fill="#e6ecfe"/><g fill-rule="nonzero" transform="translate(31.874677 5)"><path d="m1.125323 0h140v151h-140z" fill="#3f3d56"/><path d="m8.125323 9h133v142h-133z" fill="#f2f2f2"/><g fill="#3f3d56"><path d="m5.125323 28h41v4h-41z"/><path d="m5.125323 39h41v4h-41z"/><path d="m5.125323 50h41v4h-41z"/><circle cx="59.625323" cy="30.5" r="3.5"/><circle cx="59.625323" cy="41.5" r="3.5"/><circle cx="59.625323" cy="51.5" r="3.5"/></g><path d="m22.125323 78h104v61h-104z" fill="#fff"/><path d="m23.125323 139c1.6327966-.393733 3.2465413-.768482 4.8412341-1.124246l-2.2040233-8.220771c.7664028-.474365 4.0890981 4.283525 4.0890981 4.283525l-2.7990555-23.777594c3.8344347.951106 5.6100173 25.20544 5.6100173 25.20544l4.3509231-8.080826-2.1445193 9.150524c17.5655086-3.422549 32.7199321-4.482764 45.4585056-4.228977l-1.8874654-7.037213c.7664008-.474366 4.0890981 4.28115 4.0890981 4.28115l-2.7990555-23.777597c3.8344207.953472 5.6100174 25.207807 5.6100174 25.207807l4.3532914-8.083186-2.2730412 9.693666c10.6749886.652252 19.3744381 2.215285 26.0840831 3.923-1.880323-10.936503-8.466194-21.453203-8.466194-21.453203 5.067336 2.936326 7.702166 7.715569 9.063619 12.143771.219039-16.558151-.7338-33.1110874-2.85143-49.5356716-.695-5.3579684-1.551849-10.9056835-2.596738-16.5695984.057121.2395421 1.628014 6.8806667 3.429784 16.5695984 2.803825 15.0682254 6.15745 37.5176056 5.219671 54.7560626l-.197542 5.068599c1.868411.543153 3.541665 1.086305 5.019722 1.60574z" fill="#3f3d56"/><circle cx="41.125323" cy="91" fill="#387ed1" r="10"/><circle cx="59.625323" cy="30.5" fill="#387ed1" r="1.5"/><circle cx="59.625323" cy="41.5" fill="#387ed1" r="1.5"/><circle cx="59.625323" cy="51.5" fill="#387ed1" r="1.5"/><path d="m128.125323 106.759107h5v1h-5z" fill="#3f3d56"/><path d="m136.125323 106.999794c-1.328978.443167-2.977892 1.199301-4 2.000206l.805027-2.000206-.805027-1.999794c1.022108.800903 2.671022 1.557038 4 1.999794z" fill="#3f3d56"/><path d="m14.125323 106.759107h5v1h-5z" fill="#3f3d56"/><path d="m11.125323 107.000206c1.3289715-.443167 2.9778921-1.199303 4-2.000206l-.8050267 2.000206.8050267 1.999794c-1.0221079-.800903-2.6710285-1.557038-4-1.999794z" fill="#3f3d56"/><circle cx="5.625323" cy="3.5" fill="#387ed1" r="1.5"/><circle cx="11.625323" cy="3.5" fill="#387ed1" r="1.5"/><circle cx="17.625323" cy="3.5" fill="#387ed1" r="1.5"/><path d="m129.125323 2h7v1h-7z" fill="#f2f2f2"/><path d="m129.125323 3h7v1h-7z" fill="#f2f2f2"/><path d="m129.125323 5h7v1h-7z" fill="#f2f2f2"/><path d="m.125323 150.774191h193v1h-193z" fill="#2f2e41"/><path d="m154.325323 144.2.8 4-4 .8.6-5z" fill="#ffb8b8"/><path d="m166.125323 143-1.034483 5h-4.965517l2.068966-6z" fill="#ffb8b8"/><path d="m171.317445 107.5322.807878 5.458439-1.009847 11.927698s.201969.202165 0 .808658c-.20197.606493.403939 1.010822 0 1.212986-.403939.202165-.807878 2.425973-.807878 2.425973l-3.433481 14.555836s-3.837419 0-4.443328-1.617315l1.009848-8.28874s0-4.447617.403939-5.660603.403939-1.010822.201969-1.819479c-.201969-.808658-1.211817-.404329-.403939-1.010822l.807878-.606494-1.211817-.808657-2.423633-11.321206-4.241358 15.364494s-.20197 5.054109-.807878 6.873589c-.605909 1.819479-1.413786 9.70389-1.413786 9.70389s-3.433481.606494-3.63545 0c-.20197-.606493-.403939-14.960164-.403939-17.183973 0-2.223808 1.211816-1.819479.807877-2.628137-.403938-.808657-.403938-.808657-.403938-1.212986s.807877-.202164.403938-.808657c-.403938-.606494-1.995177-18.896694-1.995177-18.896694z" fill="#2f2e41"/><path d="m162.136462 146.964286s.955033.196428 1.528052 0c.57302-.196429 0-1.375 0-1.375h2.101073s2.292079 5.303571 3.247112 5.696428 4.011139 4.714286.382013 4.714286c-2.239277-.02957-4.424645-.710601-6.303217-1.964286 0 0-.382014-1.767857-2.101073-1.964285-1.719059-.196429-2.865099-2.357143-2.865099-2.357143l2.483086-4.714286s.57302 2.160714 1.528053 1.964286z" fill="#2f2e41"/><path d="m153.888589 146.537728s-.406679.768865-.813358.384432c-.406679-.384432-.813358-1.345512-.813358-1.345512s-1.220037-.576648-1.423376 0c-.20334.576648-1.016697 3.652105-1.423376 4.036537s-4.676808 4.420969-.406679 5.189833c4.270128.768864 5.083486-.96108 5.083486-.96108s-.610018-.96108.610019-1.345512 1.423376-1.729945 1.423376-1.729945l-.813358-5.766481s-.813358 1.92216-1.423376 1.537728z" fill="#2f2e41"/><path d="m175.557159 93 .590367 10.521019s2.755043 6.676801-.983944 6.474474c-3.738988-.202327-1.377522-6.676801-1.377522-6.676801l-3.660737-9.3898984z" fill="#ffb8b8"/><path d="m144.693486 90-.590366 10.521019s-2.755043 6.676801.983944 6.474474 1.377521-6.676801 1.377521-6.676801l3.660738-9.3898984z" fill="#ffb8b8"/><circle cx="161.125323" cy="62" fill="#ffb8b8" r="5"/><path d="m164.29666 65s-1.395106 5.6805362 1.395106 7.1006703c2.790213 1.4201341-8.769239 3.448897-9.566443 0l.398602-1.6230103s1.594407-2.028763 1.195805-3.8546496z" fill="#ffb8b8"/><path d="m162.39731 70.9815152s-3.420353.3293812-4.485285-1.9815152c0 0-8.002704.5507121-9.786702 8.1135289l2.973331 19.6224438s.792888 3.4748073-.396444 4.2924093c-1.189333.817602-2.775109 1.430803-2.378665 2.044005 0 0-1.98222 5.723213 16.254208 5.927613l7.928881-.408801c.107212-1.161896.040355-2.333886-.198222-3.474808-.396444-1.839604-.792888-1.635203-.396444-2.861606s.198222-2.044005.198222-2.044005l-2.378664-9.8112215s5.946661-9.6068214 5.351995-11.0376246-1.547004-7.0724111-9.197939-9.3616185c0 0-.118497 1.1856003-3.488272.9811998z" fill="#d0cde1"/><path d="m172.552851 76 2.611183 3.553911s2.611183 14.8428046 1.807742 15.0518582-5.624087 1.8814823-6.427528 1.2543215c-.803441-.6271607-4.418925-12.9613223-4.418925-12.9613223z" fill="#d0cde1"/><path d="m151.029494 75-3.239007 2.3116512s-4.763247 14.7105075-3.429538 15.3409578 8.764374.2101501 8.764374.2101501z" fill="#d0cde1"/><path d="m165.812209 57.989878s-1.772685-3.719657-5.17033-2.8612734c-3.397644.8583835-5.318053 2.145955-5.465776 3.4335284s.073861 3.2189345.073861 3.2189345.369309-2.6466794 2.732889-2.0744244c2.36358.5722551 6.056671.1430633 6.056671.1430633l.590895 5.1502936s.664758-.9299142 1.403376-.3576592c.738618.5722551 2.141992-5.5079604-.221586-6.6524628z" fill="#2f2e41"/><path d="m184.415454 145.07973c2.065922 4.142132 6.450552 5.92027 6.450552 5.92027s1.035115-4.937598-1.030815-9.07973-6.450554-5.92027-6.450554-5.92027-1.035107 4.937596 1.030817 9.07973z" fill="#3f3d56"/><path d="m186.387918 143.679475c4.142136 2.39919 5.737405 7.164643 5.737405 7.164643s-5.12046.875597-9.262595-1.523593c-4.142136-2.39919-5.737405-7.164643-5.737405-7.164643s5.12046-.875597 9.262595 1.523593z" fill="#387ed1"/></g><path d="m201.5-3.5 52 47" stroke="#da0e0e" stroke-linecap="square" stroke-width="17"/><text fill="#fff" font-family="SourceSansPro-Bold, Source Sans Pro" font-size="16" font-weight="bold" transform="matrix(.7193398 .69465837 -.69465837 .7193398 78.609416 -153.126452)"><tspan x="210.869342" y="26.71934">BETA</tspan></text></g></svg>